<svg xmlns="http://www.w3.org/2000/svg" version="1.0" preserveAspectRatio="xMidYMid meet" viewBox="150 173.13 199.5 163.94">
 <g fill="#ffffff">
  <path d="M182.65 336.40 c-1.30 -0.65 -1.90 -1.85 -1.20 -2.55 0.35 -0.35 1.05 -0.25 2.15 0.35 2.95 1.60 5.40 0.40 4.75 -2.30 -0.25 -0.85 -1.10 -1.60 -2.90 -2.40 -2.85 -1.35 -3.95 -2.60 -3.95 -4.55 0 -2.35 1.50 -3.60 4.65 -3.85 2.95 -0.25 4.35 0.35 4.35 1.75 0 0.55 -0.45 0.65 -2.20 0.40 -2.95 -0.45 -4.30 0 -4.30 1.55 0 0.95 0.55 1.45 2.90 2.65 3 1.55 4.10 3 4.10 5.45 -0.05 2.50 -2.15 4.10 -5.35 4.05 -1.05 0 -2.40 -0.25 -3 -0.55z"/>
  <path d="M207 330.05 l0 -7 -2.10 -0.15 c-1.55 -0.10 -2.20 -0.40 -2.30 -1 -0.15 -0.80 0.35 -0.90 5.10 -0.90 4.95 0 5.30 0.05 5.30 1 0 0.85 -0.35 1 -2 1 l-2 0 0 7 c0 6.65 -0.05 7 -1 7 -0.95 0 -1 -0.35 -1 -6.95z"/>
  <path d="M226.65 335.80 l-1.40 -1.20 0 -6.70 c0 -6.50 0 -6.65 1.15 -6.80 1.10 -0.15 1.10 -0.10 1.10 6.10 0 6.70 0.40 7.80 2.65 7.80 2.40 0 2.60 -0.55 2.75 -7.50 0.15 -6 0.25 -6.50 1.15 -6.50 0.90 0 0.95 0.45 0.95 6.75 0 6.55 -0.05 6.85 -1.25 8 -1.70 1.75 -5.10 1.75 -7.10 0.05z"/>
  <path d="M248.90 336.70 c-0.25 -0.20 -0.40 -3.80 -0.40 -8.05 l0 -7.65 3.45 0 c2.95 0 3.70 0.20 4.90 1.20 1.40 1.20 1.40 1.30 1.40 6.75 0 5.05 -0.10 5.60 -1.10 6.65 -0.90 0.90 -1.85 1.15 -4.50 1.30 -1.90 0.10 -3.55 0 -3.75 -0.20z m6.30 -2.50 c0.60 -0.60 0.80 -1.85 0.80 -5.20 0 -5.05 -0.50 -6 -3.30 -6 l-1.70 0 0 6 0 6 1.70 0 c0.95 0 2.10 -0.35 2.50 -0.80z"/>
  <path d="M271.30 335.90 c-0.40 -1.50 -0.40 -13.10 0 -14.10 0.15 -0.45 0.75 -0.80 1.25 -0.80 0.90 0 0.95 0.50 0.95 8 0 7.50 -0.05 8 -0.95 8 -0.55 0 -1.05 -0.45 -1.25 -1.10z"/>
  <path d="M288.70 336.40 c-0.60 -0.25 -1.35 -1.05 -1.65 -1.70 -0.70 -1.60 -0.70 -9.80 0 -11.35 1.45 -3.25 7.60 -3.10 8.95 0.20 0.35 0.85 0.55 3.30 0.40 6.20 -0.15 4.60 -0.20 4.90 -1.55 6.05 -1.50 1.30 -4.20 1.55 -6.15 0.60z m4.75 -2.10 c0.40 -0.45 0.55 -2.40 0.45 -5.60 -0.15 -4.90 -0.15 -4.95 -1.55 -5.40 -2.55 -0.90 -3.10 -0.05 -3.25 5.45 -0.15 5.35 0.20 6.25 2.40 6.25 0.75 0 1.65 -0.30 1.95 -0.70z"/>
  <path d="M309.65 335.80 c-1.15 -1 -1.30 -1.35 -0.75 -1.85 0.50 -0.55 0.90 -0.50 2.05 0.20 2.65 1.55 5.05 0.85 5.05 -1.40 0 -1.30 -1 -2.25 -3.85 -3.70 -1.15 -0.60 -2.35 -1.50 -2.65 -2 -1.55 -2.95 0.55 -6.05 4.10 -6.05 3.15 0 4.40 0.45 4.40 1.60 0 0.85 -0.25 0.95 -2.20 0.65 -2.95 -0.45 -4.30 0 -4.30 1.55 0 0.90 0.55 1.45 2.50 2.45 3.55 1.80 4.50 2.90 4.50 5.20 0 2.95 -1.75 4.55 -4.95 4.55 -1.90 0 -2.80 -0.30 -3.90 -1.20z"/>
  <path d="M331.25 315.45 c-1.35 -0.25 -4.20 -0.90 -6.25 -1.45 -2.05 -0.55 -4.30 -1.15 -5 -1.30 -0.70 -0.15 -3.60 -1.45 -6.50 -2.80 -6.65 -3.20 -12.55 -7.10 -17.25 -11.45 l-2 -1.85 -9.75 -0.30 c-5.35 -0.15 -11 -0.45 -12.50 -0.70 -3.10 -0.55 -8.25 -1.90 -9.75 -2.55 -0.55 -0.25 -2.05 -0.85 -3.35 -1.35 -1.35 -0.45 -2.40 -0.95 -2.40 -1.15 0 -0.15 -0.05 -9.05 -0.15 -19.70 -0.10 -18.85 -0.05 -19.35 0.80 -18.25 6.05 7.65 11.10 11.05 19.85 13.40 3.45 0.95 12.65 0.85 16.50 -0.20 9.90 -2.65 17.15 -8.60 21.20 -17.40 7.50 -16.25 0.75 -35.20 -15.20 -42.75 -7.25 -3.45 -17.85 -4.10 -25.25 -1.60 -5.05 1.75 -9.15 4.30 -13 8.20 -4.60 4.60 -6.80 8.35 -8.30 14.10 -0.95 3.70 -1 5.40 -0.95 36.05 l0 32.10 -5.20 0 -5.25 0 -10.40 -10.10 c-23 -22.40 -43.55 -42.35 -46.50 -45.10 l-3.15 -2.95 0 28.55 0 28.50 -3.60 0.35 c-2 0.20 -9.05 0.25 -15.65 0.15 l-12 -0.15 -0.15 -59.60 -0.10 -59.65 5 0 5 0 6.60 6.40 c16.70 16.10 23.75 22.95 31.65 30.70 16.25 15.85 21.45 20.90 21.80 20.90 0.15 0 0.45 -2 0.60 -4.40 1.10 -15.50 10.40 -32.35 23.05 -41.80 3.15 -2.40 10.05 -6.80 10.60 -6.80 0.10 0 1.15 -0.40 2.35 -0.95 3.65 -1.65 7.50 -2.95 10.35 -3.55 1.50 -0.35 3.30 -0.85 4 -1.10 1.80 -0.70 19.55 -1.05 24 -0.50 23.65 3.10 43.45 18.95 51.05 40.85 2 5.85 2.95 11.10 3.30 18.20 0.60 13.20 -2.65 24.90 -10.15 36.65 -2.50 3.90 -12.80 14.55 -14.60 15.15 -0.65 0.15 -1.05 0.60 -0.95 0.90 0.25 0.85 12.05 2.75 19.50 3.15 4.60 0.25 6.35 0.50 6.35 1 0 0.35 -1.05 3.30 -2.30 6.55 -3.90 10.20 -6.65 17.35 -7.15 18.80 -0.50 1.25 -0.70 1.35 -3.40 1.30 -1.60 -0.05 -4 -0.25 -5.40 -0.50z"/>
 </g>
</svg>