<svg width="67" height="58" viewBox="0 0 67 58" fill="none" xmlns="http://www.w3.org/2000/svg">
<path d="M27.1047 2.41649C32.3164 0.0154527 38.2751 -0.443602 43.8872 0.539765C49.6727 1.6829 55.1318 4.579 59.1666 8.89952C62.461 12.3604 64.8575 16.6697 66.0726 21.2895C67.3598 26.4381 67.3666 31.9625 65.7171 37.0301C64.655 40.4235 62.9178 43.6009 60.6945 46.3732C58.541 49.0218 55.8834 51.2316 52.9828 53.0205C50.4468 54.4967 47.6812 55.5656 44.8324 56.2587C40.3948 57.2375 35.7525 57.1453 31.3307 56.1147C38.059 51.6479 44.9044 47.3611 51.6664 42.9483C51.3401 39.9825 51.0904 37.0076 50.7303 34.0463C49.828 34.4896 49.0111 35.0791 48.1605 35.6102C36.8259 42.8291 25.4958 50.0524 14.1589 57.2668C16.2674 55.0278 18.5582 52.9688 20.7072 50.7703C19.7216 49.9647 18.772 49.1163 17.9034 48.187C27.3365 42.109 36.7674 36.0265 46.2298 29.9935C45.9485 27.0007 45.6312 24.0101 45.3162 21.0195C41.1239 23.5578 37.0262 26.2603 32.8699 28.8639C24.4674 34.1925 16.0649 39.5212 7.66241 44.8498C6.7983 45.3831 5.94995 45.9434 5.0656 46.4408C7.47789 44.2805 9.93743 42.1742 12.3745 40.0432C11.9402 38.9316 11.5261 37.8087 11.1481 36.6768C23.6213 28.6141 36.1576 20.6527 48.6173 12.5765C48.4013 9.5926 48.0142 6.62449 47.76 3.64514C47.4472 3.80716 47.1389 3.97593 46.8396 4.1582C32.2826 13.5373 17.7234 22.9074 3.16187 32.2798C2.18525 32.8829 1.24014 33.5377 0.23877 34.1003C3.49041 31.3414 6.76905 28.6141 10.0499 25.889C10.8128 15.7088 17.7166 6.35446 27.1047 2.41649Z" fill="#01A7E1"/>
</svg>
