<svg width="91" height="67" viewBox="0 0 91 67" fill="none" xmlns="http://www.w3.org/2000/svg">
<path d="M35.2523 2.1985C40.1046 -0.0369842 45.6524 -0.464387 50.8776 0.451177C56.2642 1.51549 61.3469 4.2119 65.1034 8.23451C68.1707 11.4568 70.402 15.4689 71.5333 19.7702C72.7317 24.5638 72.738 29.7073 71.2023 34.4255C70.2134 37.5849 68.596 40.5432 66.526 43.1244C64.521 45.5903 62.0467 47.6477 59.3461 49.3134C56.9849 50.6877 54.41 51.6829 51.7576 52.3282C47.626 53.2396 43.3038 53.1537 39.1869 52.1941C45.4513 48.0353 51.8246 44.0442 58.1204 39.9356C57.8166 37.1743 57.5841 34.4045 57.2489 31.6474C56.4087 32.0601 55.6482 32.609 54.8562 33.1035C44.3032 39.8246 33.7543 46.5499 23.1991 53.2668C25.1622 51.1822 27.2951 49.2652 29.2959 47.2182C28.3782 46.4682 27.4941 45.6783 26.6854 44.8131C35.4681 39.1542 44.2487 33.4911 53.0586 27.8741C52.7967 25.0876 52.5013 22.3032 52.208 19.5188C48.3048 21.8821 44.4896 24.3983 40.62 26.8223C32.7968 31.7836 24.9737 36.7448 17.1505 41.706C16.346 42.2025 15.5561 42.7242 14.7328 43.1872C16.9787 41.1759 19.2687 39.2149 21.5377 37.2308C21.1333 36.1959 20.7478 35.1504 20.3959 34.0966C32.0091 26.5898 43.6809 19.1773 55.2815 11.6579C55.0804 8.87981 54.7201 6.11636 54.4833 3.34243C54.1921 3.49328 53.9051 3.65041 53.6264 3.82011C40.0731 12.5525 26.5178 21.2766 12.9603 30.0027C12.051 30.5642 11.1711 31.1739 10.2388 31.6977C13.2662 29.1291 16.3188 26.5898 19.3734 24.0526C20.0837 14.5743 26.5115 5.86494 35.2523 2.1985Z" fill="#01A7E1"/>
<path d="M35.0658 57.566C36.8111 57.1868 38.7239 57.3083 40.3162 58.1631C41.4035 58.7435 42.2562 59.7805 42.5118 60.9999C42.8345 62.4225 42.2877 63.9812 41.1794 64.9198C39.9432 65.9904 38.2462 66.3529 36.6476 66.311C35.1392 66.267 33.5657 65.8333 32.4553 64.7669C31.259 63.6481 30.8526 61.7646 31.5314 60.2645C32.1222 58.8105 33.5825 57.8991 35.0658 57.566ZM35.8222 58.3181C34.6405 58.5004 33.4337 59.0347 32.7444 60.0529C31.9567 61.1801 32.0342 62.8164 32.9162 63.8702C33.8234 64.9638 35.2879 65.4059 36.6644 65.4499C38.1624 65.4939 39.7987 65.1021 40.8232 63.9351C41.8812 62.7535 41.8393 60.7799 40.7268 59.6485C39.4802 58.358 37.5276 58.0772 35.8222 58.3181Z" fill="white"/>
<path d="M83.4482 57.5701C85.1956 57.1846 87.1126 57.3061 88.7091 58.1609C89.8027 58.7433 90.6596 59.7888 90.911 61.0144C91.2274 62.4328 90.6806 63.9853 89.5744 64.9218C88.3382 65.9903 86.6391 66.3528 85.0405 66.3109C83.5362 66.2669 81.9691 65.8332 80.8587 64.7731C79.6959 63.6857 79.2664 61.8755 79.8761 60.3964C80.4292 58.8774 81.923 57.9116 83.4482 57.5701ZM84.2423 58.3139C83.0481 58.494 81.8287 59.0304 81.1373 60.0612C80.3202 61.2344 80.446 62.9524 81.4223 63.9958C82.43 65.0957 83.993 65.4749 85.4386 65.4519C86.8591 65.4226 88.3822 64.9763 89.3041 63.8324C90.3118 62.6067 90.1903 60.6352 89.0275 59.5521C87.7788 58.3474 85.8995 58.0876 84.2423 58.3139Z" fill="white"/>
<path d="M-6.10352e-05 57.6477C2.70263 57.6477 5.40323 57.6477 8.10383 57.6477C8.10383 57.9389 8.10383 58.2322 8.10383 58.5277C5.72169 58.5256 3.33955 58.5277 0.9595 58.5277C0.9595 59.4432 0.957405 60.3588 0.9595 61.2764C3.18451 61.2764 5.40952 61.2764 7.63452 61.2764C7.63243 61.4901 7.63033 61.9154 7.63033 62.1292C5.40533 62.1271 3.18032 62.1271 0.957405 62.1292C0.9595 63.139 0.957405 64.1509 0.9595 65.1629C3.38145 65.1629 5.80549 65.1629 8.22954 65.1629C8.22744 65.452 8.22744 65.7411 8.22744 66.0302C5.48494 66.0302 2.74244 66.0302 -6.10352e-05 66.0302C-6.10352e-05 63.2354 -6.10352e-05 60.4426 -6.10352e-05 57.6477Z" fill="white"/>
<path d="M9.0592 57.6517C9.56622 57.6455 10.0753 57.6475 10.5824 57.658C11.9526 60.1575 13.3647 62.636 14.7411 65.1355C16.1428 62.6507 17.5193 60.1512 18.8978 57.6538C19.407 57.6475 19.9182 57.6455 20.4294 57.6496C20.4273 60.4424 20.4252 63.2352 20.4294 66.028C20.1004 66.028 19.7694 66.0301 19.4405 66.0322C19.4342 63.5809 19.4551 61.1296 19.43 58.6783C18.0535 61.1233 16.7168 63.5893 15.3403 66.0343C14.9423 66.0301 14.5463 66.0301 14.1482 66.0343C12.7717 63.583 11.412 61.1212 10.0502 58.6616C10.0397 61.117 10.0481 63.5746 10.0439 66.0322C9.71707 66.028 9.38814 66.028 9.0613 66.0301C9.0613 63.2373 9.06549 60.4445 9.0592 57.6517Z" fill="white"/>
<path d="M21.5796 57.6476C23.3919 57.6476 25.202 57.6476 27.0143 57.6455C27.8377 57.6518 28.7155 57.7042 29.43 58.163C30.928 59.0786 30.8903 61.6451 29.3587 62.5104C28.5919 62.9692 27.668 62.9901 26.8006 62.988C25.3864 62.9839 23.9722 62.9838 22.5601 62.9859C22.5622 64 22.5601 65.014 22.5601 66.0301C22.2333 66.0301 21.9064 66.028 21.5796 66.0301C21.5796 63.2353 21.5796 60.4425 21.5796 57.6476ZM22.5601 58.5275C22.5601 59.7239 22.5601 60.9223 22.5601 62.1207C24.0434 62.1207 25.5247 62.1207 27.008 62.1228C27.6659 62.1144 28.3803 62.0662 28.9209 61.6493C29.7778 61.0228 29.7505 59.529 28.8601 58.9466C28.3196 58.5799 27.6449 58.5275 27.0101 58.5255C25.5268 58.5234 24.0434 58.5275 22.5601 58.5275Z" fill="white"/>
<path d="M43.0733 57.6476C43.4337 57.6455 43.794 57.6455 44.1544 57.6476C45.2606 60.1177 46.3647 62.5899 47.4731 65.0622C48.5227 62.6046 49.5305 60.1282 50.5445 57.6559C51.0515 57.6455 51.5585 57.6476 52.0655 57.658C53.09 60.1219 54.0664 62.6088 55.16 65.0433C56.2537 62.5774 57.3557 60.1135 58.4514 57.6476C58.8076 57.6455 59.1638 57.6455 59.5199 57.6476C58.2964 60.4383 57.033 63.2122 55.8325 66.0134C55.3737 66.0196 54.9149 66.0385 54.4561 66.0343C53.4085 63.5537 52.3609 61.0731 51.3092 58.5946C50.2533 61.0731 49.2036 63.5537 48.1519 66.0322C47.6951 66.0343 47.2384 66.0259 46.7817 66.0196C45.5623 63.2227 44.3073 60.4404 43.0733 57.6476Z" fill="white"/>
<path d="M60.1297 57.6477C62.8303 57.6456 65.533 57.6477 68.2336 57.6477C68.2336 57.941 68.2336 58.2343 68.2336 58.5276C65.8514 58.5255 63.4693 58.5276 61.0871 58.5276C61.0871 59.4432 61.0871 60.3587 61.0892 61.2764C63.3142 61.2764 65.5392 61.2743 67.7643 61.2764C67.7622 61.4901 67.7601 61.9154 67.758 62.1291C65.5351 62.127 63.31 62.127 61.0871 62.1291C61.0892 63.1389 61.0871 64.1509 61.0892 65.1628C63.5112 65.1628 65.9352 65.1628 68.3572 65.1628C68.3572 65.4519 68.3572 65.7411 68.3572 66.0302C65.6147 66.0302 62.8722 66.0302 60.1318 66.0302C60.1297 63.2353 60.1297 60.4425 60.1297 57.6477Z" fill="white"/>
<path d="M69.1889 57.6518C71.1227 57.6413 73.0544 57.6497 74.9882 57.6455C75.8912 57.6392 76.8738 57.7733 77.5714 58.4039C78.4828 59.1875 78.5499 60.7693 77.6552 61.5906C77.165 62.0829 76.4715 62.261 75.8053 62.3511C76.8004 63.055 76.922 64.3624 77.5819 65.3073C77.9863 65.6676 78.4011 65.1858 78.686 64.9197C78.8034 65.0622 79.0359 65.3471 79.1533 65.4896C78.6672 66.1663 77.6594 66.556 76.9513 65.9798C76.2976 65.3576 76.1321 64.4211 75.7215 63.6459C75.4931 63.0949 75.0175 62.5627 74.3764 62.569C72.9769 62.5313 71.5773 62.5711 70.1799 62.5522C70.1694 63.7129 70.1757 64.8715 70.1736 66.0322C69.8447 66.0301 69.5178 66.028 69.191 66.028C69.1931 63.2373 69.1931 60.4445 69.1889 57.6518ZM70.1757 58.5275C70.1736 59.5814 70.1736 60.6373 70.1757 61.6911C71.7764 61.6911 73.3791 61.6932 74.9819 61.6932C75.6251 61.6911 76.3269 61.6157 76.8277 61.1653C77.429 60.6582 77.4499 59.6316 76.8717 59.0974C76.3793 58.6092 75.6439 58.5212 74.984 58.5254C73.3812 58.5254 71.7785 58.5275 70.1757 58.5275Z" fill="white"/>
</svg>
